<svg width="26" height="26" viewBox="0 0 26 26" fill="none" xmlns="http://www.w3.org/2000/svg">
<path d="M13 25.5C12.0138 25.5 11.2143 24.7005 11.2143 23.7143V16.7857C11.2143 15.6811 10.3189 14.7857 9.21429 14.7857H2.28571C1.29949 14.7857 0.5 13.9862 0.5 13C0.5 12.0138 1.29949 11.2143 2.28571 11.2143H9.21429C10.3189 11.2143 11.2143 10.3189 11.2143 9.21429V2.28571C11.2143 1.29949 12.0138 0.5 13 0.5C13.9862 0.5 14.7857 1.29949 14.7857 2.28571V9.21429C14.7857 10.3189 15.6811 11.2143 16.7857 11.2143H23.7143C24.7005 11.2143 25.5 12.0138 25.5 13C25.5 13.9862 24.7005 14.7857 23.7143 14.7857H16.7857C15.6811 14.7857 14.7857 15.6811 14.7857 16.7857V23.7143C14.7857 24.7005 13.9862 25.5 13 25.5Z" fill="#353537"/>
</svg>
