<svg width="30" height="24" viewBox="0 0 30 24" fill="none" xmlns="http://www.w3.org/2000/svg">
<path d="M19.5 18C19.925 18 20.2815 17.856 20.5695 17.568C20.8575 17.28 21.001 16.924 21 16.5V15H22.5C22.925 15 23.2815 14.856 23.5695 14.568C23.8575 14.28 24.001 13.924 24 13.5C24 13.075 23.856 12.7185 23.568 12.4305C23.28 12.1425 22.924 11.999 22.5 12H21V10.5C21 10.075 20.856 9.7185 20.568 9.4305C20.28 9.1425 19.924 8.999 19.5 9C19.075 9 18.7185 9.144 18.4305 9.432C18.1425 9.72 17.999 10.076 18 10.5V12H16.5C16.075 12 15.7185 12.144 15.4305 12.432C15.1425 12.72 14.999 13.076 15 13.5C15 13.925 15.144 14.2815 15.432 14.5695C15.72 14.8575 16.076 15.001 16.5 15H18V16.5C18 16.925 18.144 17.2815 18.432 17.5695C18.72 17.8575 19.076 18.001 19.5 18ZM3 24C2.175 24 1.4685 23.706 0.880502 23.118C0.292502 22.53 -0.000997453 21.824 2.54669e-06 21V3C2.54669e-06 2.175 0.294003 1.4685 0.882002 0.880502C1.47 0.292502 2.176 -0.000997453 3 2.54669e-06H10.7625C11.1625 2.54669e-06 11.544 0.0750027 11.907 0.225003C12.27 0.375003 12.5885 0.587502 12.8625 0.862502L15 3H27C27.825 3 28.5315 3.294 29.1195 3.882C29.7075 4.47 30.001 5.176 30 6V21C30 21.825 29.706 22.5315 29.118 23.1195C28.53 23.7075 27.824 24.001 27 24H3Z" fill="#353537"/>
</svg>
