<svg width="18" height="30" viewBox="0 0 18 30" fill="none" xmlns="http://www.w3.org/2000/svg">
<path d="M13.7731 29.4063L0.43538 16.1082C0.277069 15.9499 0.164668 15.7784 0.0981774 15.5937C0.0316867 15.409 -0.00103067 15.2111 2.47364e-05 15C2.47364e-05 14.7889 0.0327421 14.591 0.0981774 14.4063C0.163613 14.2216 0.276014 14.0501 0.43538 13.8918L13.7731 0.55409C14.1425 0.184696 14.6042 0 15.1583 0C15.7124 0 16.1874 0.197889 16.5831 0.593668C16.9789 0.989446 17.1768 1.45119 17.1768 1.97889C17.1768 2.5066 16.9789 2.96834 16.5831 3.36412L4.94725 15L16.5831 26.6359C16.9525 27.0053 17.1372 27.4607 17.1372 28.0021C17.1372 28.5435 16.9393 29.0116 16.5436 29.4063C16.1478 29.8021 15.686 30 15.1583 30C14.6306 30 14.1689 29.8021 13.7731 29.4063Z" fill="#353537"/>
</svg>
