<svg width="20" height="20" viewBox="0 0 20 20" fill="none" xmlns="http://www.w3.org/2000/svg">
<path d="M0.8389 18.5165C0.141535 17.8191 0.141535 16.6885 0.8389 15.9911L5.73814 11.0919C6.51919 10.3108 6.51919 9.0445 5.73814 8.26346L0.838899 3.36421C0.141534 2.66685 0.141535 1.5362 0.8389 0.838835C1.53626 0.14147 2.66692 0.14147 3.36428 0.838835L8.26352 5.73808C9.04457 6.51912 10.3109 6.51912 11.0919 5.73807L15.9912 0.838834C16.6886 0.141469 17.8192 0.14147 18.5166 0.838835C19.2139 1.5362 19.2139 2.66685 18.5166 3.36422L13.6173 8.26346C12.8363 9.04451 12.8363 10.3108 13.6173 11.0919L18.5166 15.9911C19.2139 16.6885 19.2139 17.8191 18.5166 18.5165C17.8192 19.2139 16.6886 19.2139 15.9912 18.5165L11.0919 13.6173C10.3109 12.8362 9.04457 12.8362 8.26352 13.6173L3.36428 18.5165C2.66692 19.2139 1.53626 19.2139 0.8389 18.5165Z" fill="#353537"/>
</svg>
