<svg width="26" height="19" viewBox="0 0 26 19" fill="none" xmlns="http://www.w3.org/2000/svg">
<path d="M8.7725 18.625C8.55028 18.625 8.34195 18.59 8.1475 18.52C7.95306 18.45 7.7725 18.3322 7.60584 18.1667L0.43917 11C0.133614 10.6944 -0.0124971 10.2983 0.000836237 9.81167C0.0141696 9.325 0.174169 8.92944 0.480836 8.625C0.786391 8.31944 1.17528 8.16667 1.6475 8.16667C2.11972 8.16667 2.50861 8.31944 2.81417 8.625L8.7725 14.5833L22.8975 0.458333C23.2031 0.152778 23.5992 0 24.0858 0C24.5725 0 24.9681 0.152778 25.2725 0.458333C25.5781 0.763889 25.7308 1.16 25.7308 1.64667C25.7308 2.13333 25.5781 2.52889 25.2725 2.83333L9.93917 18.1667C9.7725 18.3333 9.59195 18.4517 9.3975 18.5217C9.20306 18.5917 8.99473 18.6261 8.7725 18.625Z" fill="#EFEFEF"/>
</svg>
