<svg width="60" height="60" viewBox="0 0 60 60" fill="none" xmlns="http://www.w3.org/2000/svg">
<g clip-path="url(#clip0_130_2889)">
<rect width="60" height="60" fill="#E0E0E0"/>
<rect width="60" height="60" fill="#00A894"/>
<path d="M25.7725 39.625C25.5503 39.625 25.3419 39.59 25.1475 39.52C24.9531 39.45 24.7725 39.3322 24.6058 39.1667L17.4392 32C17.1336 31.6944 16.9875 31.2983 17.0008 30.8117C17.0142 30.325 17.1742 29.9294 17.4808 29.625C17.7864 29.3194 18.1753 29.1667 18.6475 29.1667C19.1197 29.1667 19.5086 29.3194 19.8142 29.625L25.7725 35.5833L39.8975 21.4583C40.2031 21.1528 40.5992 21 41.0858 21C41.5725 21 41.9681 21.1528 42.2725 21.4583C42.5781 21.7639 42.7308 22.16 42.7308 22.6467C42.7308 23.1333 42.5781 23.5289 42.2725 23.8333L26.9392 39.1667C26.7725 39.3333 26.5919 39.4517 26.3975 39.5217C26.2031 39.5917 25.9947 39.6261 25.7725 39.625Z" fill="#EFEFEF"/>
</g>
<defs>
<clipPath id="clip0_130_2889">
<rect width="60" height="60" fill="white"/>
</clipPath>
</defs>
</svg>
