<svg width="60" height="60" viewBox="0 0 60 60" fill="none" xmlns="http://www.w3.org/2000/svg">
<g clip-path="url(#clip0_130_2894)">
<rect width="60" height="60" fill="#E0E0E0"/>
<rect width="60" height="60" fill="#00A894"/>
<path d="M25.7725 39.625C25.5503 39.625 25.3419 39.59 25.1475 39.52C24.9531 39.45 24.7725 39.3322 24.6058 39.1667L17.4392 32C17.1336 31.6944 16.9875 31.2983 17.0008 30.8117C17.0142 30.325 17.1742 29.9294 17.4808 29.625C17.7864 29.3194 18.1753 29.1667 18.6475 29.1667C19.1197 29.1667 19.5086 29.3194 19.8142 29.625L25.7725 35.5833L39.8975 21.4583C40.2031 21.1528 40.5992 21 41.0858 21C41.5725 21 41.9681 21.1528 42.2725 21.4583C42.5781 21.7639 42.7308 22.16 42.7308 22.6467C42.7308 23.1333 42.5781 23.5289 42.2725 23.8333L26.9392 39.1667C26.7725 39.3333 26.5919 39.4517 26.3975 39.5217C26.2031 39.5917 25.9947 39.6261 25.7725 39.625Z" fill="#EFEFEF"/>
<rect width="60" height="60" fill="#FF7E56"/>
<path d="M24.0417 23.8333H16.5417C16.0996 23.8333 15.6757 23.6577 15.3632 23.3452C15.0506 23.0326 14.875 22.6087 14.875 22.1667V14.6667C14.875 14.2246 15.0506 13.8007 15.3632 13.4882C15.6757 13.1756 16.0996 13 16.5417 13C16.9837 13 17.4076 13.1756 17.7202 13.4882C18.0327 13.8007 18.2083 14.2246 18.2083 14.6667V20.5H24.0417C24.4837 20.5 24.9076 20.6756 25.2202 20.9882C25.5327 21.3007 25.7083 21.7246 25.7083 22.1667C25.7083 22.6087 25.5327 23.0326 25.2202 23.3452C24.9076 23.6577 24.4837 23.8333 24.0417 23.8333Z" fill="#EFEFEF"/>
<path d="M44.6665 31.333C44.2245 31.333 43.8006 31.1574 43.488 30.8449C43.1754 30.5323 42.9998 30.1084 42.9998 29.6663C43.0011 26.7322 42.0339 23.8798 40.2483 21.5515C38.4628 19.2233 35.9586 17.5495 33.1246 16.7899C30.2905 16.0303 27.2849 16.2273 24.5743 17.3504C21.8637 18.4735 19.5995 20.4599 18.1332 23.0013C17.9117 23.3839 17.5474 23.6629 17.1202 23.7768C16.6931 23.8907 16.2382 23.8303 15.8557 23.6088C15.4731 23.3874 15.1942 23.023 15.0802 22.5959C14.9663 22.1688 15.0267 21.7139 15.2482 21.3313C17.0819 18.1551 19.9127 15.6728 23.3012 14.2695C26.6897 12.8662 30.4467 12.6205 33.9891 13.5703C37.5316 14.5202 40.6616 16.6126 42.8935 19.5229C45.1254 22.4332 46.3345 25.9987 46.3332 29.6663C46.3332 30.1084 46.1576 30.5323 45.845 30.8449C45.5325 31.1574 45.1085 31.333 44.6665 31.333ZM42.7915 46.333C42.3495 46.333 41.9256 46.1574 41.613 45.8449C41.3004 45.5323 41.1248 45.1084 41.1248 44.6663V38.833H35.2915C34.8495 38.833 34.4256 38.6574 34.113 38.3449C33.8004 38.0323 33.6248 37.6084 33.6248 37.1663C33.6248 36.7243 33.8004 36.3004 34.113 35.9878C34.4256 35.6753 34.8495 35.4997 35.2915 35.4997H42.7915C43.2335 35.4997 43.6575 35.6753 43.97 35.9878C44.2826 36.3004 44.4582 36.7243 44.4582 37.1663V44.6663C44.4582 45.1084 44.2826 45.5323 43.97 45.8449C43.6575 46.1574 43.2335 46.333 42.7915 46.333Z" fill="#EFEFEF"/>
<path d="M29.6667 46.3333C25.248 46.328 21.0119 44.5704 17.8874 41.4459C14.7629 38.3215 13.0053 34.0853 13 29.6667C13 29.2246 13.1756 28.8007 13.4882 28.4882C13.8007 28.1756 14.2246 28 14.6667 28C15.1087 28 15.5326 28.1756 15.8452 28.4882C16.1577 28.8007 16.3333 29.2246 16.3333 29.6667C16.3321 32.6008 17.2993 35.4533 19.0848 37.7815C20.8704 40.1097 23.3745 41.7835 26.2086 42.5431C29.0427 43.3027 32.0482 43.1057 34.7589 41.9826C37.4695 40.8595 39.7337 38.8731 41.2 36.3317C41.3097 36.1422 41.4555 35.9763 41.6293 35.8432C41.8031 35.7102 42.0014 35.6126 42.2129 35.5562C42.4244 35.4998 42.6449 35.4856 42.8619 35.5144C43.0789 35.5432 43.2881 35.6145 43.4775 35.7242C43.6669 35.8338 43.8329 35.9797 43.966 36.1535C44.099 36.3273 44.1965 36.5256 44.2529 36.7371C44.3093 36.9486 44.3236 37.1691 44.2947 37.3861C44.2659 37.6031 44.1947 37.8122 44.085 38.0017C42.6192 40.5291 40.5166 42.6284 37.9869 44.0902C35.4571 45.552 32.5884 46.3254 29.6667 46.3333Z" fill="#EFEFEF"/>
<rect width="60" height="60" fill="#FF5656"/>
<path d="M30 41.3333V41.35M30 34.6667V18" stroke="#EFEFEF" stroke-width="3.33333" stroke-linecap="round" stroke-linejoin="round"/>
</g>
<defs>
<clipPath id="clip0_130_2894">
<rect width="60" height="60" fill="white"/>
</clipPath>
</defs>
</svg>
