<svg width="20" height="25" viewBox="0 0 20 25" fill="none" xmlns="http://www.w3.org/2000/svg">
<path d="M2.38095 25C1.72619 25 1.16548 24.7667 0.698811 24.3C0.232145 23.8333 -0.00079163 23.273 2.02118e-06 22.619V10.7143C2.02118e-06 10.0595 0.233335 9.49881 0.700002 9.03214C1.16667 8.56548 1.72699 8.33254 2.38095 8.33333H3.57143V5.95238C3.57143 4.30556 4.15199 2.90159 5.3131 1.74048C6.47421 0.579366 7.87778 -0.000792838 9.52381 8.13167e-07C11.1706 8.13167e-07 12.5746 0.580556 13.7357 1.74167C14.8968 2.90278 15.477 4.30635 15.4762 5.95238V8.33333H16.6667C17.3214 8.33333 17.8821 8.56667 18.3488 9.03333C18.8155 9.5 19.0484 10.0603 19.0476 10.7143V22.619C19.0476 23.2738 18.8143 23.8345 18.3476 24.3012C17.881 24.7679 17.3206 25.0008 16.6667 25H2.38095ZM9.52381 19.0476C10.1786 19.0476 10.7393 18.8143 11.206 18.3476C11.6726 17.881 11.9056 17.3206 11.9048 16.6667C11.9048 16.0119 11.6714 15.4512 11.2048 14.9845C10.7381 14.5179 10.1778 14.2849 9.52381 14.2857C8.86905 14.2857 8.30833 14.519 7.84167 14.9857C7.375 15.4524 7.14207 16.0127 7.14286 16.6667C7.14286 17.3214 7.37619 17.8821 7.84286 18.3488C8.30953 18.8155 8.86984 19.0484 9.52381 19.0476ZM5.95238 8.33333H13.0952V5.95238C13.0952 4.96032 12.748 4.11706 12.0536 3.42262C11.3591 2.72818 10.5159 2.38095 9.52381 2.38095C8.53175 2.38095 7.68849 2.72818 6.99405 3.42262C6.2996 4.11706 5.95238 4.96032 5.95238 5.95238V8.33333Z" fill="#EFEFEF"/>
</svg>
