<svg width="25" height="26" viewBox="0 0 25 26" fill="none" xmlns="http://www.w3.org/2000/svg">
<path d="M17.532 19.0811C17.2712 18.7729 17.1408 18.4234 17.1408 18.0327C17.1408 17.642 17.2712 17.3158 17.532 17.0541L20.1636 14.4225H9.95732C9.55428 14.4225 9.21621 14.2859 8.94309 14.0128C8.66998 13.7397 8.5339 13.4021 8.53484 13C8.53484 12.597 8.6714 12.2589 8.94452 11.9858C9.21763 11.7127 9.55523 11.5766 9.95732 11.5775H20.1636L17.532 8.94597C17.2475 8.66147 17.1052 8.3234 17.1052 7.93175C17.1052 7.54009 17.2475 7.20249 17.532 6.91894C17.7928 6.63445 18.119 6.4922 18.5107 6.4922C18.9023 6.4922 19.2281 6.6226 19.4879 6.88338L24.6088 12.0043C24.751 12.1465 24.852 12.3006 24.9118 12.4666C24.9715 12.6325 25.0009 12.8104 25 13C25 13.1897 24.9706 13.3675 24.9118 13.5334C24.853 13.6994 24.752 13.8535 24.6088 13.9958L19.4879 19.1167C19.1797 19.4249 18.8416 19.5614 18.4737 19.5263C18.1057 19.4912 17.7918 19.3428 17.532 19.0811ZM2.84495 25.8023C2.06259 25.8023 1.3926 25.5235 0.834994 24.9659C0.277385 24.4083 -0.000945901 23.7387 2.41507e-06 22.9573V3.0427C2.41507e-06 2.26034 0.278807 1.59036 0.836417 1.03275C1.39403 0.475139 2.06354 0.196808 2.84495 0.197756H11.3798C11.7828 0.197756 12.1209 0.334314 12.394 0.607429C12.6671 0.880544 12.8032 1.21814 12.8023 1.62023C12.8023 2.02326 12.6657 2.36134 12.3926 2.63445C12.1195 2.90757 11.7819 3.04365 11.3798 3.0427H2.84495V22.9573H11.3798C11.7828 22.9573 12.1209 23.0939 12.394 23.367C12.6671 23.6401 12.8032 23.9777 12.8023 24.3798C12.8023 24.7828 12.6657 25.1209 12.3926 25.394C12.1195 25.6671 11.7819 25.8032 11.3798 25.8023H2.84495Z" fill="#353537"/>
</svg>
