<svg width="30" height="20" viewBox="0 0 30 20" fill="none" xmlns="http://www.w3.org/2000/svg">
<path d="M15 0.9375C16.1603 0.9375 17.2731 1.39844 18.0936 2.21891C18.9141 3.03938 19.375 4.15218 19.375 5.3125C19.375 6.47282 18.9141 7.58562 18.0936 8.40609C17.2731 9.22656 16.1603 9.6875 15 9.6875C13.8397 9.6875 12.7269 9.22656 11.9064 8.40609C11.0859 7.58562 10.625 6.47282 10.625 5.3125C10.625 4.15218 11.0859 3.03938 11.9064 2.21891C12.7269 1.39844 13.8397 0.9375 15 0.9375ZM6.25 4.0625C6.95 4.0625 7.6 4.25 8.1625 4.5875C7.975 6.375 8.5 8.15 9.575 9.5375C8.95 10.7375 7.7 11.5625 6.25 11.5625C5.25544 11.5625 4.30161 11.1674 3.59835 10.4641C2.89509 9.76089 2.5 8.80706 2.5 7.8125C2.5 6.81794 2.89509 5.86411 3.59835 5.16085C4.30161 4.45759 5.25544 4.0625 6.25 4.0625ZM23.75 4.0625C24.7446 4.0625 25.6984 4.45759 26.4017 5.16085C27.1049 5.86411 27.5 6.81794 27.5 7.8125C27.5 8.80706 27.1049 9.76089 26.4017 10.4641C25.6984 11.1674 24.7446 11.5625 23.75 11.5625C22.3 11.5625 21.05 10.7375 20.425 9.5375C21.5148 8.13052 22.0207 6.35775 21.8375 4.5875C22.4 4.25 23.05 4.0625 23.75 4.0625ZM6.875 16.875C6.875 14.2875 10.5125 12.1875 15 12.1875C19.4875 12.1875 23.125 14.2875 23.125 16.875V19.0625H6.875V16.875ZM0 19.0625V17.1875C0 15.45 2.3625 13.9875 5.5625 13.5625C4.825 14.4125 4.375 15.5875 4.375 16.875V19.0625H0ZM30 19.0625H25.625V16.875C25.625 15.5875 25.175 14.4125 24.4375 13.5625C27.6375 13.9875 30 15.45 30 17.1875V19.0625Z" fill="#EFEFEF"/>
</svg>
