<svg width="30" height="19" viewBox="0 0 30 19" fill="none" xmlns="http://www.w3.org/2000/svg">
<path d="M15 0C16.1603 0 17.2731 0.460936 18.0936 1.28141C18.9141 2.10188 19.375 3.21468 19.375 4.375C19.375 5.53532 18.9141 6.64812 18.0936 7.46859C17.2731 8.28906 16.1603 8.75 15 8.75C13.8397 8.75 12.7269 8.28906 11.9064 7.46859C11.0859 6.64812 10.625 5.53532 10.625 4.375C10.625 3.21468 11.0859 2.10188 11.9064 1.28141C12.7269 0.460936 13.8397 0 15 0ZM6.25 3.125C6.95 3.125 7.6 3.3125 8.1625 3.65C7.975 5.4375 8.5 7.2125 9.575 8.6C8.95 9.8 7.7 10.625 6.25 10.625C5.25544 10.625 4.30161 10.2299 3.59835 9.52665C2.89509 8.82339 2.5 7.86956 2.5 6.875C2.5 5.88044 2.89509 4.92661 3.59835 4.22335C4.30161 3.52009 5.25544 3.125 6.25 3.125ZM23.75 3.125C24.7446 3.125 25.6984 3.52009 26.4017 4.22335C27.1049 4.92661 27.5 5.88044 27.5 6.875C27.5 7.86956 27.1049 8.82339 26.4017 9.52665C25.6984 10.2299 24.7446 10.625 23.75 10.625C22.3 10.625 21.05 9.8 20.425 8.6C21.5148 7.19302 22.0207 5.42025 21.8375 3.65C22.4 3.3125 23.05 3.125 23.75 3.125ZM6.875 15.9375C6.875 13.35 10.5125 11.25 15 11.25C19.4875 11.25 23.125 13.35 23.125 15.9375V18.125H6.875V15.9375ZM0 18.125V16.25C0 14.5125 2.3625 13.05 5.5625 12.625C4.825 13.475 4.375 14.65 4.375 15.9375V18.125H0ZM30 18.125H25.625V15.9375C25.625 14.65 25.175 13.475 24.4375 12.625C27.6375 13.05 30 14.5125 30 16.25V18.125Z" fill="#353537"/>
</svg>
