<svg width="34" height="34" viewBox="0 0 34 34" fill="none" xmlns="http://www.w3.org/2000/svg">
<path d="M11.0417 10.8333H3.54167C3.09964 10.8333 2.67572 10.6577 2.36316 10.3452C2.05059 10.0326 1.875 9.60869 1.875 9.16667V1.66667C1.875 1.22464 2.05059 0.800716 2.36316 0.488155C2.67572 0.175595 3.09964 0 3.54167 0C3.98369 0 4.40762 0.175595 4.72018 0.488155C5.03274 0.800716 5.20833 1.22464 5.20833 1.66667V7.5H11.0417C11.4837 7.5 11.9076 7.67559 12.2202 7.98816C12.5327 8.30072 12.7083 8.72464 12.7083 9.16667C12.7083 9.60869 12.5327 10.0326 12.2202 10.3452C11.9076 10.6577 11.4837 10.8333 11.0417 10.8333Z" fill="#EFEFEF"/>
<path d="M31.6665 18.333C31.2245 18.333 30.8006 18.1574 30.488 17.8449C30.1754 17.5323 29.9998 17.1084 29.9998 16.6663C30.0011 13.7322 29.0339 10.8798 27.2483 8.55153C25.4628 6.22329 22.9586 4.5495 20.1246 3.78989C17.2905 3.03027 14.2849 3.22731 11.5743 4.35042C8.86367 5.47354 6.59951 7.45993 5.13317 10.0013C4.91172 10.3839 4.54735 10.6629 4.12024 10.7768C3.69313 10.8907 3.23825 10.8303 2.85567 10.6088C2.4731 10.3874 2.19417 10.023 2.08024 9.59591C1.96631 9.1688 2.02672 8.71392 2.24817 8.33135C4.08193 5.15508 6.91265 2.67276 10.3012 1.26949C13.6897 -0.133771 17.4467 -0.379535 20.9891 0.570329C24.5316 1.52019 27.6616 3.61258 29.8935 6.52289C32.1254 9.4332 33.3345 12.9987 33.3332 16.6663C33.3332 17.1084 33.1576 17.5323 32.845 17.8449C32.5325 18.1574 32.1085 18.333 31.6665 18.333ZM29.7915 33.333C29.3495 33.333 28.9256 33.1574 28.613 32.8449C28.3004 32.5323 28.1248 32.1084 28.1248 31.6663V25.833H22.2915C21.8495 25.833 21.4256 25.6574 21.113 25.3449C20.8004 25.0323 20.6248 24.6084 20.6248 24.1663C20.6248 23.7243 20.8004 23.3004 21.113 22.9878C21.4256 22.6753 21.8495 22.4997 22.2915 22.4997H29.7915C30.2335 22.4997 30.6575 22.6753 30.97 22.9878C31.2826 23.3004 31.4582 23.7243 31.4582 24.1663V31.6663C31.4582 32.1084 31.2826 32.5323 30.97 32.8449C30.6575 33.1574 30.2335 33.333 29.7915 33.333Z" fill="#EFEFEF"/>
<path d="M16.6667 33.3333C12.248 33.328 8.01186 31.5704 4.8874 28.4459C1.76294 25.3215 0.00529286 21.0853 0 16.6667C0 16.2246 0.175595 15.8007 0.488155 15.4882C0.800716 15.1756 1.22464 15 1.66667 15C2.10869 15 2.53262 15.1756 2.84518 15.4882C3.15774 15.8007 3.33333 16.2246 3.33333 16.6667C3.33207 19.6008 4.29926 22.4533 6.08484 24.7815C7.87042 27.1097 10.3745 28.7835 13.2086 29.5431C16.0427 30.3027 19.0482 30.1057 21.7589 28.9826C24.4695 27.8595 26.7337 25.8731 28.2 23.3317C28.3097 23.1422 28.4555 22.9763 28.6293 22.8432C28.8031 22.7102 29.0014 22.6126 29.2129 22.5562C29.4244 22.4998 29.6449 22.4856 29.8619 22.5144C30.0789 22.5432 30.2881 22.6145 30.4775 22.7242C30.6669 22.8338 30.8329 22.9797 30.966 23.1535C31.099 23.3273 31.1965 23.5256 31.2529 23.7371C31.3093 23.9486 31.3236 24.1691 31.2947 24.3861C31.2659 24.6031 31.1947 24.8122 31.085 25.0017C29.6192 27.5291 27.5166 29.6284 24.9869 31.0902C22.4571 32.552 19.5884 33.3254 16.6667 33.3333Z" fill="#EFEFEF"/>
</svg>
