<svg width="30" height="30" viewBox="0 0 30 30" fill="none" xmlns="http://www.w3.org/2000/svg">
<path d="M28.3738 29.2929C27.9832 29.6834 27.3501 29.6834 26.9596 29.2929L17.7996 20.1329C17.4393 19.7726 16.8685 19.7459 16.4418 20.0244C15.7902 20.4497 15.0735 20.8027 14.2917 21.0833C13.2083 21.4722 12.0556 21.6667 10.8333 21.6667C7.80556 21.6667 5.24333 20.6178 3.14667 18.52C1.05 16.4222 0.00111111 13.86 0 10.8333C0 7.80556 1.04889 5.24333 3.14667 3.14667C5.24444 1.05 7.80667 0.00111111 10.8333 0C13.8611 0 16.4233 1.04889 18.52 3.14667C20.6167 5.24444 21.6656 7.80667 21.6667 10.8333C21.6667 12.0556 21.4722 13.2083 21.0833 14.2917C20.8027 15.0735 20.4497 15.7902 20.0244 16.4418C19.7459 16.8685 19.7726 17.4393 20.1329 17.7996L29.2929 26.9596C29.6834 27.3501 29.6834 27.9832 29.2929 28.3738L28.3738 29.2929ZM10.8333 18.3333C12.9167 18.3333 14.6878 17.6039 16.1467 16.145C17.6056 14.6861 18.3344 12.9156 18.3333 10.8333C18.3333 8.75 17.6039 6.97889 16.145 5.52C14.6861 4.06111 12.9156 3.33222 10.8333 3.33333C8.75 3.33333 6.97889 4.06278 5.52 5.52167C4.06111 6.98056 3.33222 8.75111 3.33333 10.8333C3.33333 12.9167 4.06278 14.6878 5.52167 16.1467C6.98056 17.6056 8.75111 18.3344 10.8333 18.3333Z" fill="#353537"/>
</svg>
