<svg width="20" height="12" viewBox="0 0 20 12" fill="none" xmlns="http://www.w3.org/2000/svg">
<path d="M19.6042 2.54351L10.7388 11.4353C10.6332 11.5409 10.5189 11.6158 10.3958 11.6601C10.2726 11.7045 10.1407 11.7263 10 11.7256C9.85928 11.7256 9.72735 11.7038 9.60422 11.6601C9.48109 11.6165 9.36675 11.5416 9.26121 11.4353L0.369393 2.54351C0.123131 2.29725 -4.25581e-07 1.98942 -4.41728e-07 1.62003C-4.57875e-07 1.25064 0.131926 0.934014 0.395778 0.670161C0.65963 0.406309 0.967458 0.274384 1.31926 0.274383C1.67106 0.274383 1.97889 0.406309 2.24274 0.670161L10 8.42742L17.7573 0.67016C18.0035 0.423899 18.3071 0.300767 18.6681 0.300767C19.029 0.300767 19.3411 0.432694 19.6042 0.696546C19.8681 0.960398 20 1.26823 20 1.62003C20 1.97183 19.8681 2.27966 19.6042 2.54351Z" fill="#353537"/>
</svg>
