<svg width="25" height="15" viewBox="0 0 25 15" fill="none" xmlns="http://www.w3.org/2000/svg">
<path d="M24.5053 2.83637L13.4235 13.9511C13.2916 14.0831 13.1486 14.1767 12.9947 14.2321C12.8408 14.2876 12.6759 14.3148 12.5 14.3139C12.3241 14.3139 12.1592 14.2867 12.0053 14.2321C11.8514 14.1776 11.7084 14.084 11.5765 13.9511L0.461741 2.83637C0.153913 2.52855 -5.31977e-07 2.14376 -5.5216e-07 1.68202C-5.72343e-07 1.22028 0.164907 0.8245 0.494722 0.494684C0.824538 0.164869 1.20932 -3.81998e-05 1.64908 -3.82191e-05C2.08883 -3.82383e-05 2.47361 0.164869 2.80343 0.494684L12.5 10.1913L22.1966 0.494683C22.5044 0.186856 22.8839 0.0329418 23.3351 0.0329418C23.7863 0.0329417 24.1763 0.197849 24.5053 0.527664C24.8351 0.85748 25 1.24226 25 1.68202C25 2.12177 24.8351 2.50656 24.5053 2.83637Z" fill="#EFEFEF"/>
</svg>
